<?xml version='1.0' encoding='utf-8'?>
<svg xmlns="http://www.w3.org/2000/svg" width="872px" height="622px" version="1.1" viewBox="100 749 872 622"> <g fill="#fff"> <path d="m99.999 748.51c-0.1284 0-0.25153 0.05096-0.34232 0.1418-0.09079 0.0908-0.1418 0.2139-0.1418 0.3423l0.001004 622c0 0.2673 0.21675 0.4841 0.48412 0.4841l872 1e-3c0.1284 0 0.2515-0.051 0.3423-0.1418 0.09084-0.0909 0.1418-0.2139 0.1418-0.3423l-9.7e-4 -622c0-0.2674-0.21673-0.48413-0.48413-0.48413l-872-9.7e-4z"/> </g> <g> <g fill="#ff7300"> <path d="m460.21 921.07c-0.81983 1.3068-2.521 1.6965-3.8278 0.8769-1.3069-0.81966-1.6966-2.5209-0.87686-3.8277l0.082-0.13074 10.65-3.3353c-2.3083 1.648-4.3883 3.8032-6.0276 6.4168z"/> </g> <g fill="#fcb826"> <path d="m493.49 909.53c-12.938-8.115-29.95-4.2179-38.064 8.72-0.8198 1.3067-0.43006 3.008 0.87685 3.8276 1.3068 0.8196 3.008 0.43 3.8278-0.8769 6.4752-10.324 20.085-13.442 30.409-6.9665 10.324 6.4757 13.442 20.085 6.9663 30.409-0.8197 1.307-0.42982 3.0081 0.87696 3.828 1.3067 0.81947 3.008 0.42977 3.8277-0.87703 8.1146-12.938 4.2173-29.95-8.7203-38.064z"/> <path d="m498.46 948.34c-1.307-0.8198-1.6967-2.521-0.87695-3.8278 4.7539-7.5796 4.2785-16.983-0.45224-23.956 6.2502 7.7444 7.9174 18.441 3.9448 27.968-0.8017 0.40765-1.8317 0.3077-2.6157-0.1839z"/> <path d="m460.21 921.07c-0.81983 1.3068-2.521 1.6965-3.8278 0.8769-0.9148-0.57393-1.2403-1.5063-1.2225-2.4057 6.7652-7.5929 17.121-10.749 26.896-8.6235-8.4193-1.0926-17.092 2.5726-21.846 10.152z"/> </g> <g fill="#2f8694"> <path d="m314 959.97c-0.0719-0.4568-0.06002-0.9351 0.04847-1.414l-3.7e-4 4e-5 4.2e-4 -4.9e-4c-2e-5 -1.2e-4 -2e-5 -1.2e-4 -2e-5 -3.5e-4l0.23336-1.0283-0.23339 1.0289-3.7e-4 2.4e-4c-0.10812 0.47886-0.11994 0.95706-0.04801 1.4138z"/> <path d="m389.31 933.02-6.7642 29.83 6.7642-29.83z"/> </g> <g fill="#62e4b8"> <path d="m386.48 928.52-58.747-13.322c-2.0247-0.4581-4.0373 0.8104-4.4963 2.8346l-9.1881 40.517c-0.45914 2.0245 0.80947 4.0369 2.834 4.4959l58.748 13.321c2.0242 0.4602 4.0367-0.8081 4.4959-2.8324l9.1876-40.517c0.45897-2.024-0.80963-4.0368-2.8341-4.4958"/> </g> <g fill="#62b99c"> <path d="m382.55 962.85-0.95646 4.2178-1.2337 5.4409-66.078-14.984 2.1903-9.6591 66.077 14.984z"/> </g> <g fill="#26936e"> <path d="m373.63 938.78c0.85608-3.7754-1.51-7.5286-5.2856-8.3847-3.7756-0.85636-7.5295 1.5096-8.3856 5.285-0.85617 3.7753 1.51 7.5289 5.2856 8.3852 3.7755 0.85616 7.5294-1.51 8.3855-5.2854"/> </g> <g fill="#11c286"> <path d="m381.61 940.59c0.85613-3.7753-1.5102-7.529-5.2856-8.385-3.7754-0.85596-7.5295 1.5099-8.3854 5.2853-0.85617 3.7751 1.5099 7.5288 5.2855 8.385 3.7755 0.8561 7.5295-1.5096 8.3855-5.2852"/> </g> <g fill="#fff300" fill-opacity=".99608"> <path d="m338.95 947.73 0.92675-4.0919 0.9267-4.0914q-7.4107-1.6791-14.822-3.3577-0.92697 4.0917-1.854 8.1831 7.4112 1.679 14.822 3.3579"/> </g> <g fill="#f00"> <path d="m475.19 1021.2 40.656-75.562c0.88616-1.9938 0.39892-4.1202-1.2998-5.1858l-58.023-36.393c-1.6988-1.0656-3.8254-0.57833-5.2342 1.0872l-50.704 69.807c-0.78646 0.96317-1.1808 2.1729-1.0193 3.3667 0.16171 1.1939 0.74866 2.2905 1.6635 2.8642l67.955 42.623 1.8e-4 -1.8e-4c1.8296 1.1472 4.3326 0.35014 5.5622-1.61 0.24573-0.3921 0.40979-0.6534 0.44305-0.99655z"/> </g> <g fill="#a32c2c"> <path d="m400.58 974.92c-0.78646 0.96317-1.1808 2.1729-1.0193 3.3667 0.16171 1.1939 0.74866 2.2905 1.6635 2.8642l67.955 42.623 1.8e-4 -1.8e-4c1.8296 1.1472 4.3326 0.35014 5.5622-1.61 0.24573-0.3921 0.40979-0.6534 0.44305-0.99655"/> </g> <g fill="#ffb293"> <path d="m382.03 1147.7s-5.2419-3.4743-7.9929-12.122c-1.0566-3.6641-1.0153-9.6903-0.697-14.933-0.28534-3.1193 0.50854-4.2163-4.4337-8.5478-2.9472-3.3612-7.2062-9.6515-7.3868-17.403 0.33298-3.3166 4.4366-9.5729-1.8488-11.628-6.6105-2.3054-8.3346 3.8217-10.11 7.733-2.0284 7.3926 1.1698 16.333 1.1698 16.333l2.1218 9.6637s-1.7862-0.7375-7.6686-2.4282c-4.665-1.3404-9.1646-3.846-16.266-4.1331-17.128 2.2665-6.5571 11.718-6.5571 11.718-9.963 2.9791-4.9972 11.576-4.9972 11.576-8.1774 7.308-0.63827 12.05-1.1483 11.956-1.6768-0.3103-9.1914 3.5219-1.516 11.828 0 0 8.7037 8.1131 14.334 10.078 3.4592 1.8931 13.944 5.6852 23.054 5.1544 9.9809 1.6965 7.2968 3.0938 14.619 7.2945z"/> </g> <g> <path d="m628.7 878.37q10.596-1.2644 18.864 2.3206 3.9203 1.5674 9.3082 4.6423 20.597 11.816 23.139 13.847 18.211 11.947 21.262 28.554 4.6741 23.347-8.599 52.367-10.333 23.208-33.706 36.973l-54.823-99.804-5.8841-14.416q-7.0509-4.8308-7.3854-7.9639-0.87764-5.2228 7.2673-8.7284 15.523-5.7501 30.435-7.7796z"/> </g> <g fill="#ffb293"> <path d="m602.65 908.86 6.0072 0.63265 19.515 7.5349q-1.3701 9.1229 1.9011 11.806 1.2577 1.2033 3.1517 1.8894 10.803 2.784 12.205 3.8137 3.6021 1.818 5.3267 4.599 2.4849 3.6099 2.252 11.663 0.2788 4.4391-4.0754 28.679-0.4327 4.1204 0.64566 4.9306 1.2442 1.3149 6.8028-4.1888-1.2968-11.327 4.4328-13.5 5.1097-2.2144 10.568-0.97635 5.0812 1.4024 6.0295 5.2789 2.1859 5.5873-8.2643 27.821 6.3697 2.4818 6.0197 4.4864 0.3894 1.6986-3.2716 7.252l-3.7379 16.848 3.7544 10.865-29.076 37.707-38.27-29.67 1.0916-19.922q-1.4902 3.0372-22.922 1.9718-7.9026-0.7259-8.9294-5.7781l-1.4886-10.877 1.2092-14.286 4.8998-15.995q-12.66-4.537-12.89-13.127 0.2098-1.0577 1.6266-1.9549 2.6242-0.66295 9.0799-4.2906 5.5812-6.1781 7.6568-9.6318 2.4238-3.8914 3.5076-8.3174 0.93145-2.9694 1.9353-13.95 0.46319-2.5286 1.3986-4.6708 1.9485-4.9344 11.77-16.477z"/> </g> <g fill="#d2f1ff"> <path d="m672.36 1033.8-31.577 15.432-37.779-11.296-19.24 19.66-32.818 80.361-16.152 211.5 43.509 22.334 115.54-0.1232 33.707-113.64-10.243-193.87-44.951-30.354z"/> <path d="m747.14 1309.3 11.194-0.5408 13.297-4.7469 21.905 27.518-12.473 0.8441-5.7384-2.5503-22.272 8.2761-5.9118-28.79z"/> </g> <g fill="#0e0701"> <path d="m603.75 1037.5-1.8825 0.5045q-14.41 4.1858-70.635 23.39-28.573 73.84-41.89 90.295-17.381 27.256-35.762 40.334l-70.885-51.958q-17.66 29.537-25.502 39.219 24.411 23.329 102.2 72.057l19.653-6.291q18.328-20.929 39.525-43.187 10.416-10.631 12.214-10.631l-31.145 180.65 233.51-0.25 7.0831-42.098-31.642 9.4475q-57.53-0.3428-72.791 0.8237-18.907 1.0748-46.395-10.244 6.8959-198 15.372-285.98l-1.0201-6.0885z"/> <path d="m670.55 1033.4 19.207 9.92 74.019 22.593 28.031 40.671 50.308 49.03 22.579 26.512c3.3447 6.8541 5.2673 13.098 6.0349 18.696 1.6111 11.744-2.9153 26.758-13.396 45.332-10.299 18.249-31.4 48.928-63.751 91.786l-35.91-37.896 19.857-15.234 23.838-31.286 21.6-39.836-51.876-51.397-12.379-13.269-20.474 170.14-35.613-3.8197-37.779 38.468 5.2165-148.65 0.2531-80.886 0.28295-90.496z"/> </g> <g fill="#ffb293"> <path d="m670.99 1320q15.485-13.074 24.181-16.4 8.9152-3.8811 20.164-1.9475 7.1079 1.0518 21.322 6.1221l17.998 1.0653 7.3046 26.047-35.793 18.033-36.84 3.3059-16.04-15.326-2.2894-20.844z"/> </g> <g fill="#0e0701"> <path d="m636.34 1053.4 9.4837 12.862-7.2378 10.417-2.584 224.83-16.565 23.811-21.834-15.229 30.734-233.28-3.4197-13.913 11.314-9.4084z"/> <path d="m736.67 1349.9-0.05435 0.0595-20.165 21.698 22.397-0.0241-2.1776-21.733z"/> </g> <g fill-opacity=".99608"> <path d="m627.39 904.84 3e-4 0.0027-3e-4 -0.0027 3e-4 0.0027z"/> </g> <g fill="#3c464f" fill-opacity=".99608"> <path d="m302.42 1022.8 19.971 114.44 19.97 114.44q15.152-18.248 30.303-36.496-15.759-102.39-31.518-204.79l-38.726 12.405z"/> </g> <g fill="#3b464f"> <path d="m344.62 1248.1v1e-3l0.35678 3.4609q-1.3041 0.0348-2.608 0.07l2.2512-3.5319z"/> </g> <g fill-opacity=".99608"> <path d="m302.4 1022.8 5.0618 0.1246 37.477 228.69 28.975-34.728q-16.408-103.25-32.816-206.49l-38.698 12.407z"/> </g> <g fill="#44c5e5" fill-opacity=".99608"> <path d="m310.43 1023.3 13.267-4.1607 13.267-4.1604q15.626 98.706 31.251 197.41-11.406 11.345-22.812 22.689l-34.973-211.78z"/> </g> <g fill="#fff" fill-opacity=".99608"> <path d="m317.13 1202.4 5e-5 1e-4q0 5e-4 -5e-5 -1e-4z"/> </g> <g fill="#3c464f" fill-opacity=".99608"> <path d="m334.18 1008.4v4.6e-4 -4.6e-4 4.6e-4 -4.6e-4 4.6e-4 -4.6e-4z"/> <path d="m339.55 1002v2.3e-4 4.7e-4 -4.7e-4 -2.3e-4 2.3e-4 4.7e-4q0-4.7e-4 0-7e-4z"/> </g> <g fill-opacity=".99608"> <path d="m354.28 1197.3v3e-4l7e-5 2e-4 -7e-5 -5e-4z"/> <path d="m345.42 1056.8v4e-4q0 1e-3 0-4e-4z"/> </g> <g fill="#8f1616"> <path d="m337.03 1017.4 44.766 2.6579 1.5546 5.1631-32.726 7.2012c-1.3007 13.108-3.3468 22.034-5.5521 33.646l-8.0424-48.668z"/> </g> <g fill="#f00" fill-opacity=".99608"> <path d="m320.03 1082.3-10.45-58.97 27.186-9.6806 51.374 3.156 1.449 6.0846-26.343 10.661-38.199 6.6677-5.0163 42.082z"/> </g> <g fill="#8f1717" fill-opacity=".99608"> <path d="m309.53 1023.4 51.036 3.0304q1.4046 3.6122 2.809 7.2245-19.173 3.4357-38.346 6.8717l-5.0526 42.134-10.446-59.26z"/> </g> <g fill="#fff"> <path d="m318.88 1020.1 49.398 4.3096 1.1016 6.808 5.4788-2.315-0.82526-6.7941-50.317-3.8813-4.8362 1.8728z"/> <path d="m329.92 1016 50.038 4.8177 1.0341 5.6026 5.4471-2.158-0.68963-5.3731-51.632-4.3278-4.1978 1.4386z"/> </g> <g fill="#fff" fill-opacity=".23922"> <path d="m347.37 1080.5-13.598 83.114 11.619 71.838 13.078-84.826-11.099-70.127z"/> </g> <g fill="#535d66" fill-opacity=".99608"> <path d="m362.55 1225.9 0.00336 0.5391q-0.09122 1.618-0.85798 2.5757-0.77944 0.9553-1.8401 0.8279l-0.3205-0.0766q-0.31744-0.1057-0.61084-0.3166-0.59292-0.4285-1.0167-1.1951-0.65166-1.1514-0.64694-2.8173 0.06064-1.6085 0.83905-2.6372 0.25423-0.3266 0.57266-0.5402l0.33249-0.1796 0.36068-0.1105 0.3945-0.0351q1.2105 0.0747 2.024 1.3692 0.25971 0.4166 0.44118 0.9242l0.15752 0.525 0.10978 0.5586 0.05782 0.5885z"/> </g> <g fill-opacity=".99608"> <path d="m309.38 1055.8 0.80823-0.1447 0.8082-0.1451q1.8448 10.28 3.6893 20.56-0.80823 0.1452-1.6164 0.2905-1.8447-10.28-3.6894-20.561z"/> </g> </g> </svg>